<svg width="16" height="16" viewBox="0 0 16 16" xmlns="http://www.w3.org/2000/svg"><g><rect x="2" y="0" width="12" height="1" fill="#4166AD"/><rect x="1" y="1" width="1" height="1" fill="#4166AD"/><rect x="2" y="1" width="13" height="3" fill="#375998"/><rect x="0" y="2" width="1" height="12" fill="#4166AD"/><rect x="1" y="2" width="1" height="13" fill="#375998"/><rect x="15" y="2" width="1" height="12" fill="#375998"/><rect x="2" y="4" width="8" height="1" fill="#375998"/><rect x="10" y="4" width="4" height="2" fill="#FFFFFF"/><rect x="14" y="4" width="1" height="11" fill="#375998"/><rect x="2" y="5" width="7" height="3" fill="#375998"/><rect x="9" y="5" width="1" height="10" fill="#FFFFFF"/><rect x="10" y="6" width="1" height="9" fill="#FFFFFF"/><rect x="11" y="6" width="3" height="2" fill="#375998"/><rect x="2" y="8" width="5" height="8" fill="#375998"/><rect x="7" y="8" width="2" height="2" fill="#FFFFFF"/><rect x="11" y="8" width="3" height="1" fill="#FFFFFF"/><rect x="11" y="9" width="2" height="1" fill="#FFFFFF"/><rect x="13" y="9" width="1" height="7" fill="#375998"/><rect x="7" y="10" width="2" height="6" fill="#375998"/><rect x="11" y="10" width="2" height="6" fill="#375998"/><rect x="9" y="15" width="2" height="1" fill="#D1D1D1"/></g></svg>